HIERARCHY
ROOT Hips
{
	OFFSET 0.000000 8.830580 0.000000
	CHANNELS 6 Xposition Yposition Zposition Zrotation Yrotation Xrotation 
	JOINT Spine
	{
		OFFSET 0.000000 0.010000 0.000000
		CHANNELS 3 Zrotation Yrotation Xrotation
		JOINT Spine1
		{
			OFFSET 0.000000 2.459130 0.000000
			CHANNELS 3 Zrotation Yrotation Xrotation
			JOINT Neck
			{
				OFFSET 0.000000 2.484630 0.000000
				CHANNELS 3 Zrotation Yrotation Xrotation
				JOINT Head_virtual
				{
					OFFSET 0.000000 0.000000 0.000000
					CHANNELS 3 Zrotation Yrotation Xrotation
					JOINT Head
					{
						OFFSET 0.000000 0.927525 0.000000
						CHANNELS 3 Zrotation Yrotation Xrotation
						End Site
						{
							OFFSET 0.000000 0.000000 0.000000
						}
					}
				}
				JOINT LeftUpArm_virtual
				{
					OFFSET 0.000000 0.000000 0.000000
					CHANNELS 3 Zrotation Yrotation Xrotation
					JOINT LeftUpArm
					{
						OFFSET 1.248820 0.000000 0.000000
						CHANNELS 3 Zrotation Yrotation Xrotation
						JOINT LeftForeArm
						{
							OFFSET 2.597580 0.000000 0.000000
							CHANNELS 3 Zrotation Yrotation Xrotation
							JOINT LeftHand
							{
								OFFSET 2.455420 0.000000 0.000000
								CHANNELS 3 Zrotation Yrotation Xrotation
								End Site
								{
									OFFSET 0.000000 0.000000 0.000000
								}
							}
						}
					}
				}
				JOINT RightUpArm_virtual
				{
					OFFSET -0.000000 -0.000000 -0.000000
					CHANNELS 3 Zrotation Yrotation Xrotation
					JOINT RightUpArm
					{
						OFFSET -1.248820 -0.000000 -0.000000
						CHANNELS 3 Zrotation Yrotation Xrotation
						JOINT RightForeArm
						{
							OFFSET -2.597580 -0.000000 -0.000000
							CHANNELS 3 Zrotation Yrotation Xrotation
							JOINT RightHand
							{
								OFFSET -2.455420 -0.000000 -0.000000
								CHANNELS 3 Zrotation Yrotation Xrotation
								End Site
								{
									OFFSET 0.000000 0.000000 0.000000
								}
							}
						}
					}
				}
			}
		}
	}
	JOINT LeftUpLeg
	{
		OFFSET 1.271939 0.000000 0.000000
		CHANNELS 3 Zrotation Yrotation Xrotation
		JOINT LeftLowLeg
		{
			OFFSET 0.000000 -4.342910 0.000000
			CHANNELS 3 Zrotation Yrotation Xrotation
			JOINT LeftFoot
			{
				OFFSET 0.000000 -4.487670 0.000000
				CHANNELS 3 Zrotation Yrotation Xrotation
				JOINT LeftToeBase
				{
					OFFSET 0.000000 0.000000 1.515070
					CHANNELS 3 Zrotation Yrotation Xrotation
					End Site
					{
						OFFSET 0.000000 0.000000 0.000000
					}
				}
			}
		}
	}
	JOINT RightUpLeg
	{
		OFFSET -1.271939 0.000000 0.000000
		CHANNELS 3 Zrotation Yrotation Xrotation
		JOINT RightLowLeg
		{
			OFFSET 0.000000 -4.342910 0.000000
			CHANNELS 3 Zrotation Yrotation Xrotation
			JOINT RightFoot
			{
				OFFSET 0.000000 -4.487670 0.000000
				CHANNELS 3 Zrotation Yrotation Xrotation
				JOINT RightToeBase
				{
					OFFSET 0.000000 0.000000 1.515070
					CHANNELS 3 Zrotation Yrotation Xrotation
					End Site
					{
						OFFSET 0.000000 0.000000 0.000000
					}
				}
			}
		}
	}
}
MOTION
Frames: 8
Frame Time: 0.041667
-13.055378 8.995862 36.498467 -176.933943 -26.152504 -169.289464 5.941461 0.046466 -26.767710 -5.031555 -1.961720 11.291504 0.000000 0.000000 0.000000 20.524695 4.661084 -5.812274 -15.342526 -13.870216 -73.584838 -24.796900 -4.176080 14.592700 -30.024500 -28.799200 -16.691986 180.000000 -83.233704 -180.000000 7.807520 37.700600 38.221008 24.638800 -3.598290 4.053430 44.682800 22.805799 6.750940 180.000000 77.814003 180.000000 -8.840460 -21.012199 18.693800 2.782445 -23.432623 -9.566635 0.000000 0.000000 6.343710 -1.064140 19.954542 -2.496466 0.000000 0.000000 -11.064780 4.648277 35.425113 -6.540303 0.000000 0.000000 3.975890 2.773969 -23.029107 3.713728 0.000000 0.000000 -16.825820 
-13.057233 8.994741 36.500033 -176.945325 -26.188882 -168.976591 6.358042 0.323458 -26.642958 -6.091879 -1.992040 11.191151 0.000000 0.000000 0.000000 22.275187 3.833179 -7.197517 -14.781823 -13.434308 -73.981393 -24.447500 -3.275370 14.346000 -32.451698 -26.942301 -17.018005 180.000000 -80.066498 -180.000000 8.349270 38.286701 35.951996 25.107201 -3.462170 4.180200 45.031799 22.408600 3.941090 -180.000000 75.740997 -180.000000 -15.119800 -20.420799 15.990200 2.899540 -23.442279 -9.866902 0.000000 0.000000 6.256850 -1.059919 19.943106 -2.485219 0.000000 0.000000 -11.040540 4.412762 35.457476 -6.875434 0.000000 0.000000 3.894360 2.760238 -23.092667 3.698629 0.000000 0.000000 -16.811500 
-13.058220 8.994419 36.502412 -176.938934 -26.250004 -168.688009 6.347065 0.342716 -26.484510 -6.069350 -2.002720 11.031323 0.000000 0.000000 0.000000 23.175294 3.208286 -8.319114 -14.029589 -13.515290 -74.721256 -24.647600 -2.484580 14.222200 -34.789001 -25.053600 -17.591003 -180.000000 -77.401001 180.000000 9.956910 38.453400 32.895996 25.182800 -3.296890 4.311260 45.289001 21.855000 0.912941 180.000000 73.757004 180.000000 -21.325399 -20.397200 13.338700 3.036147 -23.457062 -10.176149 0.000000 0.000000 6.196110 -1.044057 19.918612 -2.457177 0.000000 0.000000 -11.030390 4.212128 35.415117 -7.208190 0.000000 0.000000 3.838530 2.755946 -23.097655 3.703116 0.000000 0.000000 -16.788780 
-13.059399 8.994626 36.506145 -176.922347 -26.366654 -168.446295 6.327792 0.365574 -26.285076 -5.959966 -2.002725 10.953974 0.000000 0.000000 0.000000 23.012030 3.383832 -8.915625 -12.493331 -13.804706 -76.201894 -24.923000 -1.801310 14.301900 -36.749199 -23.284800 -18.553009 -180.000000 -75.189003 180.000000 11.944500 38.122002 29.303009 25.245600 -3.244760 4.412250 45.462399 21.305000 -2.130570 180.000000 71.801003 180.000000 -26.345400 -21.942400 10.539100 3.182030 -23.570787 -10.484749 0.000000 0.000000 6.180370 -1.007960 19.957712 -2.418630 0.000000 0.000000 -11.028900 4.058473 35.275093 -7.501304 0.000000 0.000000 3.802350 2.715785 -23.071748 3.739152 0.000000 0.000000 -16.795490 
-13.062044 8.994215 36.509263 -176.910412 -26.570319 -168.253444 6.386805 0.459124 -26.177105 -6.103541 -1.958478 11.069948 0.000000 0.000000 0.000000 23.618868 3.031664 -9.866649 -11.770316 -13.866880 -77.157298 -25.225100 -1.369390 14.543700 -38.029999 -21.621300 -19.848999 180.000000 -73.324997 -180.000000 13.444800 37.861900 25.639008 25.273001 -3.252300 4.346590 45.861301 20.606100 -5.417420 180.000000 70.396004 180.000000 -29.365700 -23.013201 4.514560 3.314188 -23.755942 -10.761119 0.000000 0.000000 6.190570 -0.981885 19.977318 -2.402330 0.000000 0.000000 -11.012980 3.970504 35.005105 -7.693264 0.000000 0.000000 3.734080 2.653035 -23.031201 3.764764 0.000000 0.000000 -16.808560 
-13.064571 8.993381 36.513124 -176.924137 -26.830425 -168.099140 6.452158 0.592257 -26.103600 -6.389938 -1.861223 11.346766 0.000000 0.000000 0.000000 24.448787 2.586940 -10.955926 -11.294071 -13.757390 -77.802401 -25.558300 -1.100010 14.684500 -38.650902 -20.093399 -20.781006 180.000000 -71.795998 -180.000000 16.150900 38.167301 22.433990 25.343800 -3.344110 4.231020 46.221001 19.845699 -8.645180 180.000000 69.484001 180.000000 -31.883499 -22.330200 -0.432452 3.423717 -24.018751 -11.009351 0.000000 0.000000 6.214330 -0.943785 20.017261 -2.374840 0.000000 0.000000 -11.001190 3.909785 34.673875 -7.828620 0.000000 0.000000 3.681030 2.593469 -22.999568 3.751274 0.000000 0.000000 -16.794020 
-13.065711 8.992488 36.516434 -176.971328 -27.157355 -167.974643 6.504885 0.806097 -25.979564 -6.800951 -1.704906 11.536777 0.000000 0.000000 0.000000 25.282514 2.165170 -11.864297 -10.727212 -13.719778 -78.417361 -25.695900 -0.943275 14.897100 -38.992599 -18.885500 -21.148987 -180.000000 -70.792000 180.000000 21.911900 38.285301 21.458008 25.512699 -3.551750 4.212730 46.331299 19.024500 -11.471400 180.000000 68.936996 180.000000 -35.767399 -21.118799 -2.949140 3.500132 -24.242433 -11.231536 0.000000 0.000000 6.260950 -0.919040 19.940041 -2.334631 0.000000 0.000000 -11.021410 3.864698 34.361417 -7.907490 0.000000 0.000000 3.620850 2.535906 -23.042196 3.726155 0.000000 0.000000 -16.815660 
-13.065743 8.991641 36.518378 -177.027519 -27.554616 -167.869896 6.437965 0.917495 -25.864161 -6.970484 -1.565162 11.699227 0.000000 0.000000 0.000000 25.775556 1.840032 -12.572393 -10.046757 -13.822612 -79.083673 -25.680300 -0.726181 14.764700 -39.424702 -17.872900 -21.131989 -180.000000 -70.386002 180.000000 26.790001 38.600700 21.466003 25.620199 -3.827630 4.218170 46.116001 18.442600 -13.624100 180.000000 69.101997 180.000000 -41.903999 -19.366800 -5.171540 3.588095 -24.527649 -11.427983 0.000000 0.000000 6.285840 -0.913406 19.841428 -2.286397 0.000000 0.000000 -11.003890 3.846140 34.050441 -7.934586 0.000000 0.000000 3.531940 2.500035 -23.133554 3.696712 0.000000 0.000000 -16.869820 
